{
  "accessors": [
    {
      "bufferView": 2,
      "componentType": 5126,
      "count": 2422,
      "max": [
        0.6104329824447632,
        0.5104470252990723,
        0.18052899837493896
      ],
      "min": [
        -0.6104329824447632,
        -0.5104470252990723,
        -0.18052899837493896
      ],
      "type": "VEC3"
    },
    {
      "bufferView": 2,
      "byteOffset": 29064,
      "componentType": 5126,
      "count": 2422,
      "max": [
        0.7659943103790283,
        0.9271390438079834,
        0.8893328309059143
      ],
      "min": [
        -0.7659943103790283,
        -0.9271042943000793,
        -0.8931199312210083
      ],
      "type": "VEC3"
    },
    {
      "bufferView": 1,
      "componentType": 5126,
      "count": 2422,
      "max": [
        0.9858660101890564,
        0.9841319918632507
      ],
      "min": [
        0.04949700087308884,
        0.01042800024151802
      ],
      "type": "VEC2"
    },
    {
      "bufferView": 0,
      "componentType": 5125,
      "count": 6252,
      "type": "SCALAR"
    }
  ],
  "asset": {
    "extras": {
      "author": "Poyo20 (https://sketchfab.com/poyo20)",
      "license": "CC-BY-4.0 (http://creativecommons.org/licenses/by/4.0/)",
      "source": "https://sketchfab.com/3d-models/moon-music-moongoggles-coldplay-1c3dbb86f8fd43148b144d0597842e12",
      "title": "MOON MUSiC Moongoggles Coldplay"
    },
    "generator": "Sketchfab-16.51.0",
    "version": "2.0"
  },
  "bufferViews": [
    {
      "buffer": 0,
      "byteLength": 25008,
      "name": "floatBufferViews",
      "target": 34963
    },
    {
      "buffer": 0,
      "byteLength": 19376,
      "byteOffset": 25008,
      "byteStride": 8,
      "name": "floatBufferViews",
      "target": 34962
    },
    {
      "buffer": 0,
      "byteLength": 58128,
      "byteOffset": 44384,
      "byteStride": 12,
      "name": "floatBufferViews",
      "target": 34962
    }
  ],
  "buffers": [
    {
      "byteLength": 102512,
      "uri": "scene.bin"
    }
  ],
  "images": [
    {
      "uri": "textures/Moongoggles_baseColor.png"
    }
  ],
  "materials": [
    {
      "doubleSided": true,
      "name": "Moongoggles",
      "pbrMetallicRoughness": {
        "baseColorTexture": {
          "index": 0
        },
        "metallicFactor": 0.0,
        "roughnessFactor": 0.6
      }
    }
  ],
  "meshes": [
    {
      "name": "Object_0",
      "primitives": [
        {
          "attributes": {
            "NORMAL": 1,
            "POSITION": 0,
            "TEXCOORD_0": 2
          },
          "indices": 3,
          "material": 0,
          "mode": 4
        }
      ]
    }
  ],
  "nodes": [
    {
      "children": [
        1
      ],
      "matrix": [
        1.0,
        0.0,
        0.0,
        0.0,
        0.0,
        2.220446049250313e-16,
        -1.0,
        0.0,
        0.0,
        1.0,
        2.220446049250313e-16,
        0.0,
        0.0,
        0.0,
        0.0,
        1.0
      ],
      "name": "Sketchfab_model"
    },
    {
      "children": [
        2
      ],
      "name": "e25284e395c0465db6d00222d82105f5.obj.cleaner.materialmerger.gles"
    },
    {
      "mesh": 0,
      "name": "Object_2"
    }
  ],
  "samplers": [
    {
      "magFilter": 9729,
      "minFilter": 9987,
      "wrapS": 10497,
      "wrapT": 10497
    }
  ],
  "scene": 0,
  "scenes": [
    {
      "name": "Sketchfab_Scene",
      "nodes": [
        0
      ]
    }
  ],
  "textures": [
    {
      "sampler": 0,
      "source": 0
    }
  ]
}
